<svg width="24" fill="currentColor" height="24" viewBox="0 0 24 24" xmlns="http://www.w3.org/2000/svg">
<path fill-rule="evenodd" clip-rule="evenodd" d="M16 21C18.2091 21 20 19.2091 20 17C20 14.7909 18.2091 13 16 13C13.7909 13 12 14.7909 12 17C12 19.2091 13.7909 21 16 21ZM16 23C19.3137 23 22 20.3137 22 17C22 13.6863 19.3137 11 16 11C12.6863 11 10 13.6863 10 17C10 20.3137 12.6863 23 16 23Z"/>
<path fill-rule="evenodd" clip-rule="evenodd" d="M16 14C16.5523 14 17 14.4477 17 15V16H18C18.5523 16 19 16.4477 19 17C19 17.5523 18.5523 18 18 18H16C15.4477 18 15 17.5523 15 17V15C15 14.4477 15.4477 14 16 14Z"/>
<path d="M6 22C4.34315 22 3 20.6569 3 19V7C3 5.34315 4.34315 4 6 4H7V3C7 2.44772 7.44772 2 8 2C8.55229 2 9 2.44772 9 3V4H15V3C15 2.44772 15.4477 2 16 2C16.5523 2 17 2.44772 17 3V4H18C19.6569 4 21 5.34315 21 7V12.101C20.4259 11.5151 19.7496 11.0297 19 10.6736V7C19 6.44772 18.5523 6 18 6H17V7C17 7.55228 16.5523 8 16 8C15.4477 8 15 7.55228 15 7V6H9V7C9 7.55228 8.55228 8 8 8C7.44772 8 7 7.55228 7 7V6H6C5.44772 6 5 6.44772 5 7V11H12.3924C11.5469 11.5095 10.8179 12.1926 10.2547 13H5V19C5 19.5523 5.44772 20 6 20H9.67363C10.0297 20.7496 10.5151 21.4259 11.101 22H6Z"/>
<path d="M9 16C9 16.5523 8.55228 17 8 17C7.44772 17 7 16.5523 7 16C7 15.4477 7.44772 15 8 15C8.55228 15 9 15.4477 9 16Z"/>
</svg>
