<svg width="24" height="24" viewBox="0 0 24 24" fill="currentColor" xmlns="http://www.w3.org/2000/svg">
<path fill-rule="evenodd" clip-rule="evenodd" d="M4.85625 5.11775C6.73087 3.17378 9.2999 2.05257 12 2C14.7001 2.05257 17.2691 3.17378 19.1437 5.11775C21.0183 7.06173 22.0455 9.66979 22 12.37V15.94C22 16.7311 21.7654 17.5045 21.3259 18.1623C21.0024 18.6464 20.5785 19.052 20.0859 19.3531L18.4565 21.254C17.5066 22.3622 16.1199 23 14.6603 23H11C10.4477 23 10 22.5523 10 22C10 21.4477 10.4477 21 11 21H14.6603C15.536 21 16.3681 20.6173 16.938 19.9524L17.0473 19.8249C16.3384 19.651 15.6893 19.2862 15.1716 18.7684C14.6121 18.209 14.2312 17.4963 14.0768 16.7204C13.9225 15.9444 14.0017 15.1402 14.3045 14.4093C14.6072 13.6784 15.1199 13.0536 15.7777 12.6141C16.4355 12.1746 17.2089 11.94 18 11.94C18.7049 11.943 19.396 12.1364 20 12.5V12.37C20.0456 10.2002 19.2292 8.10075 17.7296 6.53183C16.23 4.96291 14.1697 4.05245 12 4C9.83031 4.05245 7.76993 4.96291 6.27036 6.53183C4.77079 8.10075 3.95436 10.2002 3.99999 12.37V12.5C4.60398 12.1364 5.29503 11.943 5.99999 11.94C6.79111 11.94 7.56447 12.1746 8.22227 12.6141C8.88006 13.0536 9.39275 13.6784 9.6955 14.4093C9.99826 15.1402 10.0775 15.9444 9.92313 16.7204C9.76879 17.4963 9.38782 18.209 8.82841 18.7684C8.269 19.3278 7.55627 19.7088 6.78035 19.8631C6.00442 20.0175 5.20016 19.9383 4.46925 19.6355C3.73835 19.3328 3.11363 18.8201 2.67411 18.1623C2.23458 17.5045 1.99999 16.7311 1.99999 15.94V12.37C1.95446 9.66979 2.98164 7.06173 4.85625 5.11775ZM7.11113 14.2771C6.78223 14.0573 6.39555 13.94 5.99999 13.94C5.46955 13.94 4.96085 14.1507 4.58577 14.5258C4.2107 14.9009 3.99999 15.4096 3.99999 15.94C3.99999 16.3356 4.11728 16.7222 4.33705 17.0511C4.55681 17.38 4.86917 17.6364 5.23462 17.7878C5.60007 17.9391 6.0022 17.9787 6.39017 17.9016C6.77813 17.8244 7.13449 17.6339 7.4142 17.3542C7.6939 17.0745 7.88439 16.7181 7.96156 16.3302C8.03873 15.9422 7.99912 15.5401 7.84775 15.1746C7.69637 14.8092 7.44002 14.4968 7.11113 14.2771ZM16.8888 17.6029C17.2177 17.8227 17.6044 17.94 18 17.94C18.5304 17.94 19.0391 17.7293 19.4142 17.3542C19.7893 16.9791 20 16.4704 20 15.94C20 15.5444 19.8827 15.1578 19.6629 14.8289C19.4432 14.5 19.1308 14.2436 18.7654 14.0922C18.3999 13.9409 17.9978 13.9013 17.6098 13.9784C17.2218 14.0556 16.8655 14.2461 16.5858 14.5258C16.3061 14.8055 16.1156 15.1619 16.0384 15.5498C15.9612 15.9378 16.0009 16.3399 16.1522 16.7054C16.3036 17.0708 16.5599 17.3832 16.8888 17.6029Z" />
</svg>
