<svg width="24" height="24" viewBox="0 0 24 24" fill="currentColor" xmlns="http://www.w3.org/2000/svg">
<path fill-rule="evenodd" clip-rule="evenodd" d="M12 4C7.58172 4 4 7.58172 4 12C4 16.4183 7.58172 20 12 20C16.4183 20 20 16.4183 20 12C20 7.58172 16.4183 4 12 4ZM2 12C2 6.47715 6.47715 2 12 2C17.5228 2 22 6.47715 22 12C22 17.5228 17.5228 22 12 22C6.47715 22 2 17.5228 2 12ZM17 11.5C17.5523 11.5 18 11.9477 18 12.5C18 14.0975 17.2016 15.4819 16.0924 16.4432C14.9861 17.402 13.5073 18 12 18C10.4927 18 9.01386 17.402 7.90757 16.4432C6.79844 15.4819 6 14.0975 6 12.5C6 11.9477 6.44772 11.5 7 11.5C7.55228 11.5 8 11.9477 8 12.5C8 13.4025 8.45156 14.2681 9.21743 14.9318C9.98614 15.598 11.0073 16 12 16C12.9927 16 14.0139 15.598 14.7826 14.9318C15.5484 14.2681 16 13.4025 16 12.5C16 11.9477 16.4477 11.5 17 11.5Z" />
</svg>
