<svg width="95" height="28" viewBox="0 0 95 28" fill="currentColor" xmlns="http://www.w3.org/2000/svg">
<g clip-path="url(#clip0_1_1000)">
<path d="M43.1107 24.4003C39.6075 24.4003 37.1438 22.4842 36.9793 19.7474H39.5531C39.6897 21.198 40.9759 22.2926 43.0835 22.2926C45.0546 22.2926 46.1492 21.3074 46.1492 20.0763C46.1492 16.7368 37.2839 18.68 37.2839 13.0963C37.2839 10.797 39.4459 8.90887 42.789 8.90887C46.1006 8.90887 48.2904 10.6877 48.4549 13.6161H45.9533C45.8439 12.1147 44.6943 11.0165 42.696 11.0165C40.8622 11.0165 39.7648 11.8923 39.7648 13.0963C39.7648 16.6546 48.4684 14.7114 48.5778 20.0763C48.5807 22.5393 46.4187 24.4003 43.1107 24.4003Z" fill="#3E4047"/>
<path d="M57.8585 24.4004C53.5889 24.4004 50.441 21.3897 50.441 16.6275C50.441 11.8924 53.4795 8.90613 57.8585 8.90613C62.2104 8.90613 65.0573 11.9711 65.0573 16.077C65.0583 16.5817 65.0309 17.0861 64.9751 17.5877H53.2629C53.2278 17.5874 53.1931 17.5945 53.161 17.6085C53.1289 17.6225 53.1 17.643 53.0763 17.6688C53.0526 17.6946 53.0346 17.7251 53.0234 17.7582C53.0122 17.7914 53.008 17.8266 53.0112 17.8615C53.3101 20.7255 55.392 22.2941 57.86 22.2941C60.1042 22.2941 61.5276 21.1452 62.0781 19.5302H64.7606C63.987 22.2655 61.5813 24.4004 57.8585 24.4004ZM53.2979 15.5601H62.2283C62.2619 15.5603 62.2952 15.5538 62.3262 15.5409C62.3572 15.528 62.3854 15.5091 62.409 15.4851C62.4325 15.4612 62.4511 15.4328 62.4635 15.4016C62.476 15.3704 62.482 15.337 62.4814 15.3034C62.382 12.5373 60.2457 11.0138 57.7491 11.0138C55.3948 11.0138 53.4244 12.5216 53.0477 15.2655C53.0419 15.3018 53.044 15.3389 53.0539 15.3742C53.0638 15.4096 53.0813 15.4424 53.105 15.4704C53.1288 15.4983 53.1584 15.5209 53.1916 15.5363C53.2249 15.5518 53.2612 15.5599 53.2979 15.5601Z" fill="#3E4047"/>
<path d="M67.5469 3.90002H70.0377V24.1543H67.5469V3.90002Z" fill="#3E4047"/>
<path d="M73.2942 5.36205C73.2907 5.13829 73.3322 4.91612 73.4162 4.70871C73.5002 4.50131 73.6251 4.31289 73.7833 4.15466C73.9415 3.99642 74.13 3.87158 74.3374 3.78755C74.5448 3.70352 74.7669 3.66201 74.9907 3.66548C75.8936 3.66548 76.635 4.40474 76.635 5.36205C76.635 6.31936 75.8958 7.05932 74.9907 7.05932C74.7669 7.0628 74.5446 7.02127 74.3372 6.93719C74.1297 6.85312 73.9413 6.72822 73.7831 6.5699C73.6248 6.41159 73.5 6.22309 73.416 6.0156C73.332 5.80811 73.2906 5.58586 73.2942 5.36205Z" fill="#3E4047"/>
<path d="M76.1957 9.15558H73.7049V24.1544H76.1957V9.15558Z" fill="#3E4047"/>
<path d="M86.2401 8.90887C88.6244 8.90887 90.3696 9.94697 91.3741 11.2217C91.4064 11.263 91.4508 11.2931 91.5011 11.3079C91.5514 11.3227 91.605 11.3214 91.6545 11.3042C91.704 11.2871 91.747 11.2549 91.7773 11.2121C91.8076 11.1694 91.8239 11.1183 91.8238 11.0659V9.15553H94.3418V24.1543H91.8238V22.1947C91.8241 22.1421 91.8079 22.0907 91.7775 22.0478C91.7472 22.0049 91.7041 21.9725 91.6544 21.9553C91.6047 21.9381 91.5509 21.9369 91.5005 21.9519C91.4501 21.9669 91.4056 21.9973 91.3734 22.0388C90.3481 23.355 88.5851 24.3981 86.2129 24.3981C82.2164 24.3981 79.1235 21.2524 79.1235 16.5981C79.1235 11.9195 82.2185 8.90887 86.2401 8.90887ZM86.7327 11.0709C83.9959 11.0709 81.6687 13.0727 81.6687 16.6002C81.6687 20.1278 83.9959 22.2111 86.7327 22.2111C89.4695 22.2111 91.8238 20.1578 91.8238 16.6274C91.8238 13.1549 89.4695 11.0709 86.7327 11.0709Z" fill="#3E4047"/>
<path d="M14.8709 13.5953C13.5264 13.5955 12.2121 13.1969 11.0941 12.4501C9.97612 11.7032 9.10474 10.6416 8.59013 9.39953C8.07552 8.15743 7.9408 6.79062 8.20301 5.47195C8.46522 4.15329 9.11258 2.94199 10.0632 1.99125C11.0139 1.0405 12.2251 0.393018 13.5437 0.130671C14.8624 -0.131677 16.2292 0.00289791 17.4713 0.517377C18.7135 1.03186 19.7752 1.90313 20.5221 3.02102C21.2691 4.1389 21.6678 5.45319 21.6678 6.79767C21.6659 8.59982 20.9492 10.3276 19.675 11.602C18.4007 12.8764 16.673 13.5933 14.8709 13.5953ZM14.8709 1.85885C13.8942 1.85885 12.9395 2.14847 12.1274 2.69107C11.3153 3.23368 10.6824 4.00491 10.3087 4.90723C9.9349 5.80955 9.83711 6.80244 10.0276 7.76034C10.2182 8.71824 10.6885 9.59812 11.3791 10.2887C12.0697 10.9793 12.9496 11.4496 13.9075 11.6402C14.8654 11.8307 15.8583 11.7329 16.7606 11.3592C17.6629 10.9854 18.4341 10.3525 18.9767 9.54042C19.5193 8.72836 19.809 7.77362 19.809 6.79696C19.8074 5.48776 19.2867 4.23261 18.361 3.30686C17.4352 2.38112 16.1801 1.86037 14.8709 1.85885Z" fill="#8350E6"/>
<path d="M20.9035 14.3739C18.9896 16.0076 17.4782 18.5799 14.883 18.5799C12.2877 18.5799 10.8078 16.0061 8.89247 14.3725C6.00124 11.9038 3.29518 12.3864 1.48709 13.9371C-0.0292988 15.2376 -0.962299 17.9501 1.60649 21.3403C6.54317 27.8584 13.6676 28 14.8837 28C16.7347 28 23.2056 27.857 28.1409 21.331C30.7075 17.9379 29.7795 15.2655 28.1902 13.9135C26.4529 12.44 23.7969 11.9031 20.9035 14.3739ZM22.5965 15.3748C24.4932 13.8427 26.3142 14.7514 26.8389 15.1797C27.4781 15.7016 28.5033 17.1608 27.3587 18.9424C25.7108 21.5069 19.9297 21.5498 17.2895 20.7548C17.2421 20.7413 17.1995 20.7146 17.1666 20.678C17.1337 20.6413 17.1118 20.5961 17.1034 20.5476C17.095 20.499 17.1005 20.4491 17.1193 20.4036C17.138 20.358 17.1693 20.3187 17.2094 20.2901C18.4248 19.4786 21.913 15.9282 22.5965 15.3763V15.3748ZM14.8837 26.1433C14.3782 26.1433 7.59127 26.3099 2.95916 20.0084C1.32981 17.7921 1.76592 16.0269 2.88767 15.1904C4.88021 13.7033 6.60108 14.6263 8.6072 16.6832C12.4815 20.6497 15.3427 23.8126 23.3893 22.8474C23.6617 22.8152 23.8105 23.157 23.5895 23.32C21.0635 25.1665 18.0127 26.1559 14.8837 26.1433Z" fill="#8350E6"/>
<path d="M14.8709 13.5953C13.5264 13.5955 12.2121 13.1969 11.0941 12.4501C9.97612 11.7032 9.10474 10.6416 8.59013 9.39953C8.07552 8.15743 7.9408 6.79062 8.20301 5.47195C8.46522 4.15329 9.11258 2.94199 10.0632 1.99125C11.0139 1.0405 12.2251 0.393018 13.5437 0.130671C14.8624 -0.131677 16.2292 0.00289791 17.4713 0.517377C18.7135 1.03186 19.7752 1.90313 20.5221 3.02102C21.2691 4.1389 21.6678 5.45319 21.6678 6.79767C21.6659 8.59982 20.9492 10.3276 19.675 11.602C18.4007 12.8764 16.673 13.5933 14.8709 13.5953ZM14.8709 1.85885C13.8942 1.85885 12.9395 2.14847 12.1274 2.69107C11.3153 3.23368 10.6824 4.00491 10.3087 4.90723C9.9349 5.80955 9.83711 6.80244 10.0276 7.76034C10.2182 8.71824 10.6885 9.59812 11.3791 10.2887C12.0697 10.9793 12.9496 11.4496 13.9075 11.6402C14.8654 11.8307 15.8583 11.7329 16.7606 11.3592C17.6629 10.9854 18.4341 10.3525 18.9767 9.54042C19.5193 8.72836 19.809 7.77362 19.809 6.79696C19.8074 5.48776 19.2867 4.23261 18.361 3.30686C17.4352 2.38112 16.1801 1.86037 14.8709 1.85885Z" fill="#8350E6"/>
<path d="M20.9035 14.3739C18.9896 16.0076 17.4782 18.5799 14.883 18.5799C12.2877 18.5799 10.8078 16.0061 8.89247 14.3725C6.00124 11.9038 3.29518 12.3864 1.48709 13.9371C-0.0292988 15.2376 -0.962299 17.9501 1.60649 21.3403C6.54317 27.8584 13.6676 28 14.8837 28C16.7347 28 23.2056 27.857 28.1409 21.331C30.7075 17.9379 29.7795 15.2655 28.1902 13.9135C26.4529 12.44 23.7969 11.9031 20.9035 14.3739ZM22.5965 15.3748C24.4932 13.8427 26.3142 14.7514 26.8389 15.1797C27.4781 15.7016 28.5033 17.1608 27.3587 18.9424C25.7108 21.5069 19.9297 21.5498 17.2895 20.7548C17.2421 20.7413 17.1995 20.7146 17.1666 20.678C17.1337 20.6413 17.1118 20.5961 17.1034 20.5476C17.095 20.499 17.1005 20.4491 17.1193 20.4036C17.138 20.358 17.1693 20.3187 17.2094 20.2901C18.4248 19.4786 21.913 15.9282 22.5965 15.3763V15.3748ZM14.8837 26.1433C14.3782 26.1433 7.59127 26.3099 2.95916 20.0084C1.32981 17.7921 1.76592 16.0269 2.88767 15.1904C4.88021 13.7033 6.60108 14.6263 8.6072 16.6832C12.4815 20.6497 15.3427 23.8126 23.3893 22.8474C23.6617 22.8152 23.8105 23.157 23.5895 23.32C21.0635 25.1665 18.0127 26.1559 14.8837 26.1433Z" fill="#8350E6"/>
</g>
<defs>
<clipPath id="clip0_1_1000">
<rect width="94.3416" height="28" fill="white"/>
</clipPath>
</defs>
</svg>
